<svg width="40" height="40" viewBox="0 0 40 40" fill="none" xmlns="http://www.w3.org/2000/svg">
<path d="M36.0892 39.1453H36.384V37.4973H36.9098V37.2207H35.5635V37.4973H36.0892V39.1453Z" fill="white"/>
<path d="M38.7567 37.2207L38.2333 38.5304L37.7099 37.2207H37.2961V39.1453H37.591V37.7144L38.1739 39.127L38.1807 39.1453H38.2859L38.8756 37.7144V39.1453H39.1704V37.2207H38.7567Z" fill="white"/>
<path fill-rule="evenodd" clip-rule="evenodd" d="M19.9726 39.9436C30.9814 39.9423 39.9049 31.0172 39.904 20.0084C39.9032 8.99957 30.9784 0.0757512 19.9696 0.0761719C8.96078 0.0765926 0.0366211 9.0011 0.0366211 20.0099C0.0366211 25.297 2.13709 30.3676 5.87588 34.106C9.61467 37.8443 14.6855 39.9442 19.9726 39.9436ZM19.2869 12.355L14.0023 29.7127H16.0595L21.3395 12.355H19.2869ZM10.7795 12.3527L14.0686 23.1527H12.0069L8.72233 12.3527H10.7795ZM29.8401 12.355H31.8972L26.6149 29.7127H24.5578L21.2709 18.9127H23.328L25.5955 26.3207L29.8401 12.355ZM3.35324 26.8268C6.12555 33.5125 12.6526 37.8696 19.8903 37.8659C29.7679 37.8609 37.7738 29.8521 37.7738 19.9733C37.7738 12.7356 33.4134 6.21075 26.7263 3.44186C20.0392 0.672968 12.3425 2.20546 7.226 7.32459C2.10948 12.4437 0.580926 20.1411 3.35324 26.8268Z" fill="white"/>
</svg>
