<svg version="1.1" id="withings_logotype_black" xmlns="http://www.w3.org/2000/svg" xmlns:xlink="http://www.w3.org/1999/xlink" x="0px" y="0px" viewBox="0 0 569.7 199.9" style="enable-background:new 0 0 569.7 199.9;" xml:space="preserve">
	<style type="text/css">
		.st0 {
			fill: #ffffff;
		}
	</style>
	<g>
		<path class="st0" style="fill:#ffffff" d="M37.9,69.3h11.7l14.6,45.5l15.1-45.7h9.1l15.1,45.7l14.6-45.5h11.3L108,131.1h-9.3L83.7,87l-15.1,44.1h-9.3
		L37.9,69.3z"/>
		<path class="st0" style="fill:#ffffff" d="M145.5,69.3h10.7v61.4h-10.7V69.3z"/>
		<path class="st0" style="fill:#ffffff" d="M192.1,79.3h-19.5v-10h49.8v10H203v51.4h-10.9V79.3z"/>
		<path class="st0" style="fill:#ffffff" d="M238.2,69.3h10.7v25.5h29.5V69.3h10.7v61.4h-10.7v-25.9h-29.5v25.9h-10.7V69.3z"/>
		<path class="st0" style="fill:#ffffff" d="M309.9,69.3h10.7v61.4h-10.7V69.3z"/>
		<path class="st0" style="fill:#ffffff" d="M341.4,69.3h10l32.8,42.4V69.3h10.7v61.4h-9L352.1,87v43.7h-10.7V69.3z"/>
		<path class="st0" style="fill:#ffffff" d="M444.2,131.7c-4.8,0-9.2-0.8-13.1-2.4c-3.9-1.6-7.3-3.8-10-6.7c-2.8-2.8-4.9-6.2-6.4-10
		c-1.5-3.8-2.3-8-2.3-12.5V100c0-4.3,0.8-8.3,2.3-12.2c1.6-3.9,3.7-7.2,6.6-10.1c2.8-2.9,6.2-5.2,10.1-6.9c3.9-1.7,8.1-2.5,12.8-2.5
		c2.7,0,5.1,0.2,7.3,0.6c2.2,0.4,4.2,0.9,6.1,1.6c1.9,0.7,3.6,1.6,5.3,2.6c1.7,1,3.3,2.2,4.9,3.6l-6.8,8.2c-1.2-1-2.4-1.9-3.6-2.7
		c-1.2-0.8-2.5-1.5-3.9-2.1c-1.3-0.6-2.8-1-4.4-1.3c-1.6-0.3-3.4-0.5-5.3-0.5c-2.8,0-5.4,0.6-7.8,1.8c-2.4,1.2-4.5,2.7-6.3,4.7
		c-1.8,2-3.2,4.3-4.2,6.9c-1,2.6-1.5,5.4-1.5,8.3v0.2c0,3.2,0.5,6.1,1.5,8.8c1,2.7,2.4,5,4.2,6.9c1.8,1.9,4,3.5,6.6,4.6
		c2.5,1.1,5.4,1.7,8.5,1.7c2.9,0,5.6-0.4,8.2-1.3c2.5-0.9,4.7-2,6.6-3.4v-11.5h-15.7v-9.4h26.1v25.8c-1.5,1.3-3.2,2.5-5,3.7
		c-1.8,1.2-3.8,2.2-6,3.1c-2.1,0.9-4.4,1.6-6.9,2.1C449.5,131.5,446.9,131.7,444.2,131.7z"/>
		<path class="st0" style="fill:#ffffff" d="M509.8,131.6c-4.7,0-9.3-0.8-13.6-2.4c-4.3-1.6-8.3-4.1-12-7.4l6.5-7.7c3,2.6,6,4.5,9,5.9
		c3,1.4,6.5,2.1,10.3,2.1c3.3,0,6-0.7,7.9-2.1s2.9-3.3,2.9-5.6v-0.2c0-1.1-0.2-2.1-0.6-2.9c-0.4-0.8-1.1-1.7-2.1-2.4
		c-1-0.8-2.4-1.5-4.2-2.1c-1.8-0.6-4.1-1.3-7-1.9c-3.3-0.8-6.2-1.6-8.7-2.6c-2.5-1-4.7-2.1-6.4-3.5c-1.7-1.4-3-3.1-4-5
		c-0.9-2-1.4-4.4-1.4-7.2v-0.2c0-2.6,0.5-5,1.6-7.2c1-2.2,2.5-4.1,4.3-5.6c1.8-1.5,4-2.8,6.6-3.6c2.6-0.9,5.4-1.3,8.4-1.3
		c4.5,0,8.5,0.7,12.1,2c3.6,1.3,7,3.2,10.1,5.7l-5.8,8.2c-2.8-2-5.6-3.6-8.3-4.7c-2.7-1.1-5.5-1.6-8.3-1.6c-3.2,0-5.6,0.7-7.4,2.1
		c-1.8,1.4-2.6,3.1-2.6,5.2v0.2c0,1.2,0.2,2.2,0.6,3.1c0.4,0.9,1.2,1.7,2.2,2.5c1.1,0.7,2.6,1.4,4.5,2.1c1.9,0.6,4.3,1.3,7.3,2
		c3.2,0.8,6.1,1.7,8.6,2.7c2.5,1,4.6,2.2,6.2,3.6c1.6,1.4,2.9,3.1,3.7,5c0.9,1.9,1.3,4.1,1.3,6.6v0.2c0,2.9-0.5,5.4-1.6,7.7
		c-1.1,2.3-2.6,4.2-4.5,5.8c-1.9,1.6-4.2,2.8-6.9,3.6C515.9,131.1,513,131.6,509.8,131.6z"/>
	</g>
</svg>
