<svg width="224" height="17" viewBox="0 0 224 17" fill="none" xmlns="http://www.w3.org/2000/svg">
<g id="Vector">
<path d="M2.43081 0V6.55306H6.06044L0 12.1509L4.45096 16.9979L11.4364 10.6492L18.4904 16.9979L22.9413 12.1509L16.8477 6.55306H20.5105V0H2.43081Z" fill="white"/>
<path d="M203.655 16.366L207.034 0.404613C207.084 0.168936 207.291 0 207.532 0H212.761C212.964 0 213.148 0.123052 213.229 0.310759L216.608 8.25285H216.654L218.311 0.404613C218.361 0.168936 218.568 0 218.809 0H224L220.536 16.366H215.011C214.808 16.366 214.625 16.245 214.544 16.0573L211.074 7.97338H211.029L209.347 15.9614C209.297 16.197 209.089 16.366 208.849 16.366H203.655Z" fill="white"/>
<path d="M183.348 16.366L191.321 0.283646C191.408 0.110539 191.584 0 191.777 0H201.204L202.413 16.366H196.344L196.135 13.396H191.36C191.165 13.396 190.989 13.5066 190.904 13.6838L189.74 16.0781C189.655 16.2533 189.477 16.366 189.284 16.366H183.348ZM195.181 4.76984C195.083 4.76984 194.994 4.82616 194.951 4.91584L192.835 9.39995H196.114L195.934 4.8929C195.932 4.82407 195.873 4.76984 195.807 4.76984H195.181Z" fill="white"/>
<path d="M161.716 16.366L165.094 0.404613C165.144 0.168936 165.351 0 165.592 0H171.368C171.588 0 171.783 0.141823 171.852 0.352472L173.783 6.29027L178.142 0.212735C178.236 0.0792541 178.389 0 178.553 0H185.337L181.981 15.9614C181.932 16.197 181.724 16.366 181.484 16.366H176.176L177.852 8.38008C177.879 8.2466 177.709 8.16734 177.628 8.27579L172.273 15.2668H172.04L169.381 8.19445C169.336 8.07557 169.164 8.08809 169.139 8.21323L167.523 15.9593C167.473 16.197 167.266 16.366 167.025 16.366H161.716Z" fill="white"/>
<path d="M145.87 15.6881C144.49 14.7684 143.8 13.444 143.8 11.7129C143.8 10.9955 143.893 10.1925 144.08 9.30401L145.948 0.404613C145.998 0.168936 146.206 0 146.444 0H152.007L150.007 9.51675L149.985 9.70445L149.962 9.9151C149.947 10.009 149.931 10.0945 149.916 10.1716V10.3593C149.916 11.325 150.582 11.8089 151.916 11.8089C153.372 11.8089 154.263 11.0685 154.589 9.58766L156.526 0.406699C156.576 0.168936 156.783 0 157.024 0H162.589L160.425 10.1946C159.913 12.5472 158.938 14.2782 157.495 15.3857C156.084 16.4619 154.085 17 151.497 17C149.078 17 147.203 16.5641 145.87 15.6902V15.6881Z" fill="white"/>
<path d="M133.993 16.366L135.225 10.5199H130.756C130.515 10.5199 130.308 10.6889 130.258 10.9245L129.111 16.3639H123.136L126.599 0H132.575L131.366 5.65832H136.248L137.457 0H143.433L140.054 15.9614C140.004 16.197 139.797 16.366 139.556 16.366H133.991H133.993Z" fill="white"/>
<path d="M102.826 16.366L110.799 0.283646C110.886 0.110539 111.063 0 111.255 0H120.682L121.891 16.366H115.823L115.613 13.396H110.521L109.219 16.0781C109.134 16.2533 108.955 16.366 108.762 16.366H102.826ZM114.659 4.76984C114.561 4.76984 114.472 4.82616 114.429 4.91584L112.313 9.39995H115.592L115.416 5.01595C115.412 4.8783 115.298 4.76984 115.163 4.76984H114.659Z" fill="white"/>
<path d="M102.758 16.366H96.7078C96.5253 16.366 96.3553 16.2679 96.2661 16.1073L94.3724 12.7453C94.2812 12.5847 94.1132 12.4867 93.9307 12.4867H92.7567C92.5161 12.4867 92.3087 12.6556 92.259 12.8934L91.616 15.9634C91.5662 16.1991 91.3588 16.3701 91.1182 16.3701H85.5555L88.9321 0.404613C88.9819 0.168936 89.1893 0 89.4299 0H97.133C101.783 0 104.106 1.83953 104.106 5.51859C104.106 8.74506 102.696 10.8182 99.875 11.7379L102.758 16.3681V16.366ZM96.0856 8.159C96.768 8.159 97.3031 7.94835 97.6889 7.52705C98.0601 7.15372 98.2468 6.66151 98.2468 6.05459C98.2468 5.00969 97.6267 4.48828 96.3864 4.48828H94.4284C94.1879 4.48828 93.9804 4.65722 93.9307 4.89498L93.2483 8.159H96.0856Z" fill="white"/>
<path d="M81.5381 4.90958C81.2975 4.90958 81.0901 5.07852 81.0403 5.31419L78.7941 15.9593C78.7443 16.1949 78.5369 16.3639 78.2963 16.3639H72.7336L75.152 4.9075H69.7573L71.1366 0.360815C71.2009 0.14808 71.3979 0 71.6219 0H86.7544L86.2898 4.90958H81.5381Z" fill="white"/>
<path d="M55.7138 16.366L59.0924 0.404613C59.1422 0.168936 59.3496 0 59.5902 0H64.9745C65.0554 0 65.1156 0.0750828 65.099 0.154337L62.7138 11.4084H70.2945L68.8717 16.0052C68.8053 16.2179 68.6083 16.3639 68.3864 16.3639H55.7179L55.7138 16.366Z" fill="white"/>
<path d="M39.8699 15.6881C38.4907 14.7684 37.8 13.444 37.8 11.7129C37.8 10.9955 37.8933 10.1925 38.08 9.30401L39.9467 0.406699C39.9964 0.168936 40.2038 0 40.4444 0H46.0071L44.0077 9.51675L43.9849 9.70445L43.9621 9.9151C43.9476 10.009 43.931 10.0945 43.9164 10.1716V10.3593C43.9164 11.325 44.5822 11.8089 45.9159 11.8089C47.3739 11.8089 48.2637 11.0685 48.5893 9.58766L50.6116 0H56.587L54.4237 10.1946C53.9114 12.5472 52.9366 14.2782 51.493 15.3857C50.0827 16.4619 48.0833 17 45.4948 17C43.0764 17 41.2015 16.5641 39.8679 15.6902L39.8699 15.6881Z" fill="white"/>
</g>
</svg>
